<?xml version="1.0" encoding="UTF-8"?>
<svg id="Layer_2" data-name="Layer 2" xmlns="http://www.w3.org/2000/svg" viewBox="0 0 104.87 104.87">

  <g id="Layer_1-2" data-name="Layer 1">
    <g>
      <g>
        <path d="M69.82,77.78h-30.78c-1.33,0-2.66,0-3.98,0-.25,0-.49-.02-.74-.05.28.04.57.08.86.12-.46-.06-.9-.18-1.34-.35.26.11.52.22.77.32-.45-.19-.86-.43-1.24-.72.22.17.43.34.65.5-.35-.28-.67-.59-.95-.95.17.22.34.43.5.65-.29-.38-.54-.79-.72-1.24.11.26.22.52.32.77-.17-.43-.29-.88-.35-1.34.04.28.08.57.12.86-.07-.56-.05-1.14-.05-1.7v-36.32c0-1.75.03-3.5,0-5.25v-.07c-1.08,1.08-2.15,2.15-3.23,3.23h43.66c.59,0,1.18,0,1.77,0h.08c-1.08-1.08-2.15-2.15-3.23-3.23v37.66c0,1.65,0,3.29,0,4.94,0,.25-.01.5-.05.75.04-.28.08-.57.12-.86-.06.46-.18.9-.35,1.34.11-.26.22-.52.32-.77-.19.45-.43.86-.72,1.24.17-.22.34-.43.5-.65-.28.35-.59.67-.95.95.22-.17.43-.34.65-.5-.38.29-.79.54-1.24.72.26-.11.52-.22.77-.32-.43.17-.88.29-1.34.35.28-.04.57-.08.86-.12-.23.03-.46.04-.7.04-.83,0-1.69.35-2.28.94-.56.56-.98,1.48-.94,2.28.04.83.31,1.7.94,2.28.63.57,1.41.95,2.28.94,2.29-.02,4.57-.94,6.16-2.61,1.54-1.61,2.41-3.75,2.43-5.98,0-.48,0-.97,0-1.46v-39.08c0-.67,0-1.34,0-2.01v-.08c0-1.74-1.48-3.23-3.23-3.23H31.53c-.59,0-1.18,0-1.77,0h-.08c-1.74,0-3.23,1.48-3.23,3.23v42.6c0,1.45.37,2.81,1.03,4.09,1.43,2.81,4.52,4.52,7.63,4.52,1.85,0,3.7,0,5.55,0h29.17c.83,0,1.7-.36,2.28-.94.56-.56.98-1.48.94-2.28-.04-.83-.31-1.7-.94-2.28-.64-.57-1.42-.94-2.29-.94h0Z"/>
        <path d="M59.64,20.63h-14.24c-.18,0-.35,0-.54.01-1.25.11-2.49.41-3.54,1.14-1,.69-1.91,1.56-2.46,2.66-.54,1.08-.84,2.18-.85,3.4-.01,1.67,0,3.34,0,5.01v.17c0,1.74,1.48,3.23,3.23,3.23h19.61c.9,0,1.81.01,2.72,0h.04c1.74,0,3.23-1.48,3.23-3.23v-3.69c0-.5,0-.99,0-1.48,0-.71-.09-1.45-.32-2.12-.35-1.06-.83-1.85-1.54-2.71-.19-.24-.42-.45-.66-.63-.44-.34-.86-.7-1.37-.94-1.07-.52-2.1-.81-3.3-.82-.82,0-1.7.37-2.28.94-.56.56-.98,1.48-.94,2.28.08,1.76,1.42,3.21,3.23,3.23.18,0,.35.01.53.03-.28-.04-.57-.08-.86-.12.34.05.67.14.99.27-.26-.11-.52-.22-.77-.32.31.14.6.3.87.5-.22-.17-.43-.34-.65-.5.29.23.54.48.77.77-.17-.22-.34-.43-.5-.65.2.27.37.56.5.87-.11-.26-.22-.52-.32-.77.13.32.22.65.27.99-.04-.28-.08-.57-.12-.86.12.96.03,1.97.03,2.94v2.79c1.08-1.08,2.15-2.15,3.23-3.23h-19.61c-.9,0-1.81-.02-2.72,0h-.04l3.23,3.23v-2.79c0-.97-.08-1.97.03-2.94-.04.28-.08.57-.12.86.05-.34.14-.67.27-.99-.11.26-.22.52-.32.77.14-.31.3-.6.5-.87-.17.22-.34.43-.5.65.23-.29.48-.54.77-.77-.22.17-.43.34-.65.5.27-.2.56-.37.87-.5-.26.11-.52.22-.77.32.32-.13.65-.22.99-.27-.28.04-.57.08-.86.12.59-.07,1.19-.03,1.79-.03h13.16c.83,0,1.7-.36,2.28-.94.56-.56.98-1.48.94-2.28-.04-.83-.31-1.7-.94-2.28-.63-.58-1.41-.94-2.28-.94h0Z"/>
        <path d="M80.34,29.79H26.8c-.73,0-1.46,0-2.18,0h-.1c-.83,0-1.7.36-2.28.94-.56.56-.98,1.48-.94,2.28.04.83.31,1.7.94,2.28.63.58,1.41.94,2.28.94h53.55c.73,0,1.46,0,2.18,0h.1c.83,0,1.7-.36,2.28-.94.56-.56.98-1.48.94-2.28-.04-.83-.31-1.7-.94-2.28-.63-.57-1.41-.94-2.28-.94h0Z"/>
        <path d="M47.65,69.73v-22.3c0-1.03.01-2.06,0-3.1v-.05c0-.83-.36-1.7-.94-2.28-.56-.56-1.48-.98-2.28-.94-.83.04-1.7.31-2.28.94-.58.63-.94,1.41-.94,2.28v22.3c0,1.03-.01,2.06,0,3.1v.05c0,.83.36,1.7.94,2.28.56.56,1.48.98,2.28.94.83-.04,1.7-.31,2.28-.94.58-.63.94-1.41.94-2.28Z"/>
        <path d="M63.65,69.73v-22.3c0-1.03.01-2.06,0-3.1v-.05c0-.83-.36-1.7-.94-2.28-.56-.56-1.48-.98-2.28-.94-.83.04-1.7.31-2.28.94-.58.63-.94,1.41-.94,2.28v22.3c0,1.03-.01,2.06,0,3.1v.05c0,.83.36,1.7.94,2.28.56.56,1.48.98,2.28.94.83-.04,1.7-.31,2.28-.94.57-.63.94-1.41.94-2.28Z"/>
      </g>
      <path d="M52.43,104.87C23.52,104.87,0,81.34,0,52.43S23.52,0,52.43,0s52.43,23.52,52.43,52.43-23.52,52.43-52.43,52.43ZM52.43,5C26.28,5,5,26.28,5,52.43s21.28,47.43,47.43,47.43,47.43-21.28,47.43-47.43S78.59,5,52.43,5Z"/>
    </g>
  </g>
</svg>