<?xml version="1.0" encoding="UTF-8"?>
<svg id="Layer_2" data-name="Layer 2" xmlns="http://www.w3.org/2000/svg" viewBox="0 0 104.87 104.87">
  <defs>
  </defs>
  <g id="Layer_1-2" data-name="Layer 1">
    <g>
      <path d="M52.43,104.87C23.52,104.87,0,81.34,0,52.43S23.52,0,52.43,0s52.43,23.52,52.43,52.43-23.52,52.43-52.43,52.43ZM52.43,5C26.28,5,5,26.28,5,52.43s21.28,47.43,47.43,47.43,47.43-21.28,47.43-47.43S78.59,5,52.43,5Z"/>
      <path d="M91.89,53.5l-12.09-13.76c-.49-.54-1.16-.85-1.89-.85h-13.57v-3.95c0-1.38-1.12-2.51-2.5-2.51h-16.78c-4.77-8.39-15.44-11.34-23.84-6.58-8.4,4.76-11.35,15.44-6.58,23.84,1.35,2.37,3.23,4.4,5.51,5.92v16.68c0,1.39,1.12,2.51,2.51,2.51h5.45c1.38,4.77,6.36,7.51,11.12,6.13,2.96-.86,5.27-3.17,6.13-6.13h22.57c1.38,4.77,6.36,7.51,11.12,6.13,2.96-.86,5.27-3.17,6.13-6.13h4.83c1.38,0,2.5-1.12,2.5-2.51v-17.13c0-.62-.22-1.2-.62-1.66ZM21.31,41.33c-.83-1.11-.62-2.67.47-3.52,1.11-.84,2.68-.63,3.52.47l2.31,3.02,7.18-6.01c1.07-.89,2.64-.74,3.53.31.89,1.07.74,2.65-.31,3.54l-9.2,7.69c-.44.38-1.01.58-1.6.58-.09,0-.18,0-.28-.02-.67-.07-1.3-.41-1.72-.96l-3.9-5.1ZM36.73,76.27c-1.1,0-2.09-.44-2.8-1.16-.72-.72-1.17-1.71-1.18-2.82.01-2.19,1.79-3.97,3.99-3.97s3.98,1.78,3.98,3.97-1.79,3.98-3.99,3.98ZM59.33,69.79h-13.97c-.86-2.96-3.17-5.27-6.13-6.13-4.76-1.38-9.74,1.37-11.12,6.13h-2.95v-11.87c2.71.74,5.56.83,8.31.26,9.45-2.01,15.49-11.28,13.5-20.74h12.36v32.35ZM72.73,43.9h4.05l7.69,8.75h-11.74v-8.75ZM76.55,76.27c-1.1,0-2.09-.44-2.81-1.16-.71-.72-1.16-1.71-1.16-2.82,0-2.19,1.78-3.97,3.98-3.97s3.98,1.78,3.98,3.97-1.79,3.98-3.99,3.98ZM87.5,69.79h-2.32c-.86-2.96-3.17-5.27-6.13-6.13-4.76-1.38-9.74,1.37-11.12,6.13h-3.59v-25.89h3.38v11.26c0,1.38,1.12,2.5,2.5,2.5h17.28v12.13Z"/>
    </g>
  </g>
</svg>