<?xml version="1.0" encoding="UTF-8"?>
<svg id="Layer_2" data-name="Layer 2" xmlns="http://www.w3.org/2000/svg" viewBox="0 0 104.87 104.87">
  <defs>
    <style>
      .cls-1 {
        fill: #14380b;
      }
    </style>
  </defs>
  <g id="Layer_1-2" data-name="Layer 1">
    <g>
      <g>
        <g>
          <rect class="cls-1" x="20.72" y="60.12" width="9.27" height="23.95" transform="translate(-29.93 19.33) rotate(-26.96)"/>
          <path class="cls-1" d="M85.04,66.58c-.14.98-.73,1.79-1.62,2.21l-25.99,11.87c-4.21,1.92-9.12,1.69-13.13-.63l-6.94-4.01c-.13-.08-.28-.1-.43-.06l-2.76.66-7.51-14.76,6.17-3.4c2.7-1.48,5.89-1.71,8.77-.62l15.55,5.87c.86.33,1.49,1.06,1.67,1.97.18.91-.11,1.82-.79,2.45t0,0s0,0,0,0c-.68.63-1.65.87-2.55.62l-11.4-3.24c-.31-.09-.63.09-.72.4-.09.31.09.63.4.72l11.4,3.24c.34.1.69.14,1.04.14.91,0,1.81-.32,2.51-.93l22.73-5.76c.94-.24,1.93,0,2.65.65.74.66,1.08,1.6.94,2.58Z"/>
        </g>
        <g>
          <path class="cls-1" d="M62.97,31.34v5.06c-2.2-.71-2.74-1.46-2.74-2.66s.91-2.23,2.74-2.4Z"/>
          <path class="cls-1" d="M68.05,43.07c0,1.37-1,2.29-2.83,2.48v-5.2c2.2.69,2.83,1.46,2.83,2.71Z"/>
          <path class="cls-1" d="M63.2,20c-10.54,0-19.12,8.58-19.12,19.12s8.58,19.12,19.12,19.12,19.12-8.58,19.12-19.12-8.58-19.12-19.12-19.12ZM65.34,48.44v1.71c0,.69-.54,1.23-1.23,1.23s-1.26-.54-1.26-1.23v-1.77c-2.14-.23-4.11-1-5.86-2.23-.49-.31-.77-.77-.77-1.37,0-.89.69-1.57,1.57-1.57.34,0,.69.11.94.31,1.34.97,2.66,1.63,4.23,1.91v-5.63c-4.17-1.09-6.11-2.66-6.11-5.88,0-3.06,2.43-5.17,6-5.46v-.6c0-.69.57-1.23,1.26-1.23s1.23.54,1.23,1.23v.63c1.68.2,3.11.74,4.43,1.57.46.26.86.69.86,1.37,0,.89-.71,1.57-1.6,1.57-.29,0-.57-.09-.86-.26-1-.6-1.97-1.03-2.94-1.26v5.48c4.34,1.09,6.2,2.83,6.2,5.88s-2.46,5.23-6.08,5.57Z"/>
        </g>
      </g>
      <path class="cls-1" d="M52.43,104.87C23.52,104.87,0,81.34,0,52.43S23.52,0,52.43,0s52.43,23.52,52.43,52.43-23.52,52.43-52.43,52.43ZM52.43,5C26.28,5,5,26.28,5,52.43s21.28,47.43,47.43,47.43,47.43-21.28,47.43-47.43S78.59,5,52.43,5Z"/>
    </g>
  </g>
</svg>